# xmcd
#
# Track frame offsets:
#	150
#	13817
#	29207
#	42903
#
# Disc length: 724 seconds
#
# Revision: 0
# Processed by: cddbd v1.5.2PL0 Copyright (c) Steve Scherf et al.
# Submitted via: audiograbber 1.83.01
#
DISCID=3102d204
DTITLE=Dj Tomekk - Party
DYEAR=2004
DGENRE=Hip-Hop
TTITLE0=Party (Radio Edit)
TTITLE1=Party (T&T Club Mix)
TTITLE2=Party (Radio Edit Instromental)
TTITLE3=Bonus Track (Mr.Boss remix)
EXTD=
EXTT0=
EXTT1=
EXTT2=
EXTT3=
PLAYORDER=
